<svg xmlns="http://www.w3.org/2000/svg" width="1200" height="780" viewBox="0 0 1200 780"><rect width="1200" height="780" fill="#fff"/><text x="40" y="45" font-family="Arial" font-size="28" font-weight="700">Сравнение ТОП-10 по 7 критериям</text><text x="40" y="72" font-family="Arial" font-size="14">В ячейке: балл / максимум. Чем выше доля, тем темнее заливка.</text><text x="390" y="110" text-anchor="middle" font-family="Arial" font-size="16" font-weight="700">C1</text><text x="495" y="110" text-anchor="middle" font-family="Arial" font-size="16" font-weight="700">C2</text><text x="600" y="110" text-anchor="middle" font-family="Arial" font-size="16" font-weight="700">C3</text><text x="705" y="110" text-anchor="middle" font-family="Arial" font-size="16" font-weight="700">C4</text><text x="810" y="110" text-anchor="middle" font-family="Arial" font-size="16" font-weight="700">C5</text><text x="915" y="110" text-anchor="middle" font-family="Arial" font-size="16" font-weight="700">C6</text><text x="1020" y="110" text-anchor="middle" font-family="Arial" font-size="16" font-weight="700">C7</text><text x="40" y="160" font-family="Arial" font-size="16">1. Метод Лаб</text><rect x="340" y="130" width="95" height="42" fill="#111" opacity="0.90"/><text x="387" y="157" text-anchor="middle" font-family="Arial" font-size="14" fill="#fff">20/20</text><rect x="445" y="130" width="95" height="42" fill="#111" opacity="0.90"/><text x="492" y="157" text-anchor="middle" font-family="Arial" font-size="14" fill="#fff">20/20</text><rect x="550" y="130" width="95" height="42" fill="#111" opacity="0.80"/><text x="597" y="157" text-anchor="middle" font-family="Arial" font-size="14" fill="#fff">13/15</text><rect x="655" y="130" width="95" height="42" fill="#111" opacity="0.90"/><text x="702" y="157" text-anchor="middle" font-family="Arial" font-size="14" fill="#fff">15/15</text><rect x="760" y="130" width="95" height="42" fill="#111" opacity="0.90"/><text x="807" y="157" text-anchor="middle" font-family="Arial" font-size="14" fill="#fff">10/10</text><rect x="865" y="130" width="95" height="42" fill="#111" opacity="0.90"/><text x="912" y="157" text-anchor="middle" font-family="Arial" font-size="14" fill="#fff">10/10</text><rect x="970" y="130" width="95" height="42" fill="#111" opacity="0.67"/><text x="1017" y="157" text-anchor="middle" font-family="Arial" font-size="14" fill="#fff">7/10</text><text x="40" y="218" font-family="Arial" font-size="16">2. Surf</text><rect x="340" y="188" width="95" height="42" fill="#111" opacity="0.90"/><text x="387" y="215" text-anchor="middle" font-family="Arial" font-size="14" fill="#fff">20/20</text><rect x="445" y="188" width="95" height="42" fill="#111" opacity="0.86"/><text x="492" y="215" text-anchor="middle" font-family="Arial" font-size="14" fill="#fff">19/20</text><rect x="550" y="188" width="95" height="42" fill="#111" opacity="0.90"/><text x="597" y="215" text-anchor="middle" font-family="Arial" font-size="14" fill="#fff">15/15</text><rect x="655" y="188" width="95" height="42" fill="#111" opacity="0.90"/><text x="702" y="215" text-anchor="middle" font-family="Arial" font-size="14" fill="#fff">15/15</text><rect x="760" y="188" width="95" height="42" fill="#111" opacity="0.74"/><text x="807" y="215" text-anchor="middle" font-family="Arial" font-size="14" fill="#fff">8/10</text><rect x="865" y="188" width="95" height="42" fill="#111" opacity="0.59"/><text x="912" y="215" text-anchor="middle" font-family="Arial" font-size="14" fill="#fff">6/10</text><rect x="970" y="188" width="95" height="42" fill="#111" opacity="0.90"/><text x="1017" y="215" text-anchor="middle" font-family="Arial" font-size="14" fill="#fff">10/10</text><text x="40" y="276" font-family="Arial" font-size="16">3. YuSMP Group</text><rect x="340" y="246" width="95" height="42" fill="#111" opacity="0.90"/><text x="387" y="273" text-anchor="middle" font-family="Arial" font-size="14" fill="#fff">20/20</text><rect x="445" y="246" width="95" height="42" fill="#111" opacity="0.82"/><text x="492" y="273" text-anchor="middle" font-family="Arial" font-size="14" fill="#fff">18/20</text><rect x="550" y="246" width="95" height="42" fill="#111" opacity="0.90"/><text x="597" y="273" text-anchor="middle" font-family="Arial" font-size="14" fill="#fff">15/15</text><rect x="655" y="246" width="95" height="42" fill="#111" opacity="0.90"/><text x="702" y="273" text-anchor="middle" font-family="Arial" font-size="14" fill="#fff">15/15</text><rect x="760" y="246" width="95" height="42" fill="#111" opacity="0.74"/><text x="807" y="273" text-anchor="middle" font-family="Arial" font-size="14" fill="#fff">8/10</text><rect x="865" y="246" width="95" height="42" fill="#111" opacity="0.90"/><text x="912" y="273" text-anchor="middle" font-family="Arial" font-size="14" fill="#fff">10/10</text><rect x="970" y="246" width="95" height="42" fill="#111" opacity="0.59"/><text x="1017" y="273" text-anchor="middle" font-family="Arial" font-size="14" fill="#fff">6/10</text><text x="40" y="334" font-family="Arial" font-size="16">4. Перфоманс Лаб</text><rect x="340" y="304" width="95" height="42" fill="#111" opacity="0.90"/><text x="387" y="331" text-anchor="middle" font-family="Arial" font-size="14" fill="#fff">20/20</text><rect x="445" y="304" width="95" height="42" fill="#111" opacity="0.90"/><text x="492" y="331" text-anchor="middle" font-family="Arial" font-size="14" fill="#fff">20/20</text><rect x="550" y="304" width="95" height="42" fill="#111" opacity="0.90"/><text x="597" y="331" text-anchor="middle" font-family="Arial" font-size="14" fill="#fff">15/15</text><rect x="655" y="304" width="95" height="42" fill="#111" opacity="0.64"/><text x="702" y="331" text-anchor="middle" font-family="Arial" font-size="14" fill="#fff">10/15</text><rect x="760" y="304" width="95" height="42" fill="#111" opacity="0.90"/><text x="807" y="331" text-anchor="middle" font-family="Arial" font-size="14" fill="#fff">10/10</text><rect x="865" y="304" width="95" height="42" fill="#111" opacity="0.51"/><text x="912" y="331" text-anchor="middle" font-family="Arial" font-size="14" fill="#111">5/10</text><rect x="970" y="304" width="95" height="42" fill="#111" opacity="0.90"/><text x="1017" y="331" text-anchor="middle" font-family="Arial" font-size="14" fill="#fff">10/10</text><text x="40" y="392" font-family="Arial" font-size="16">5. Лаборатория качества</text><rect x="340" y="362" width="95" height="42" fill="#111" opacity="0.90"/><text x="387" y="389" text-anchor="middle" font-family="Arial" font-size="14" fill="#fff">20/20</text><rect x="445" y="362" width="95" height="42" fill="#111" opacity="0.71"/><text x="492" y="389" text-anchor="middle" font-family="Arial" font-size="14" fill="#fff">15/20</text><rect x="550" y="362" width="95" height="42" fill="#111" opacity="0.85"/><text x="597" y="389" text-anchor="middle" font-family="Arial" font-size="14" fill="#fff">14/15</text><rect x="655" y="362" width="95" height="42" fill="#111" opacity="0.54"/><text x="702" y="389" text-anchor="middle" font-family="Arial" font-size="14" fill="#111">8/15</text><rect x="760" y="362" width="95" height="42" fill="#111" opacity="0.90"/><text x="807" y="389" text-anchor="middle" font-family="Arial" font-size="14" fill="#fff">10/10</text><rect x="865" y="362" width="95" height="42" fill="#111" opacity="0.82"/><text x="912" y="389" text-anchor="middle" font-family="Arial" font-size="14" fill="#fff">9/10</text><rect x="970" y="362" width="95" height="42" fill="#111" opacity="0.90"/><text x="1017" y="389" text-anchor="middle" font-family="Arial" font-size="14" fill="#fff">10/10</text><text x="40" y="450" font-family="Arial" font-size="16">6. QA Service Lab</text><rect x="340" y="420" width="95" height="42" fill="#111" opacity="0.74"/><text x="387" y="447" text-anchor="middle" font-family="Arial" font-size="14" fill="#fff">16/20</text><rect x="445" y="420" width="95" height="42" fill="#111" opacity="0.74"/><text x="492" y="447" text-anchor="middle" font-family="Arial" font-size="14" fill="#fff">16/20</text><rect x="550" y="420" width="95" height="42" fill="#111" opacity="0.85"/><text x="597" y="447" text-anchor="middle" font-family="Arial" font-size="14" fill="#fff">14/15</text><rect x="655" y="420" width="95" height="42" fill="#111" opacity="0.54"/><text x="702" y="447" text-anchor="middle" font-family="Arial" font-size="14" fill="#111">8/15</text><rect x="760" y="420" width="95" height="42" fill="#111" opacity="0.90"/><text x="807" y="447" text-anchor="middle" font-family="Arial" font-size="14" fill="#fff">10/10</text><rect x="865" y="420" width="95" height="42" fill="#111" opacity="0.82"/><text x="912" y="447" text-anchor="middle" font-family="Arial" font-size="14" fill="#fff">9/10</text><rect x="970" y="420" width="95" height="42" fill="#111" opacity="0.90"/><text x="1017" y="447" text-anchor="middle" font-family="Arial" font-size="14" fill="#fff">10/10</text><text x="40" y="508" font-family="Arial" font-size="16">7. SimbirSoft</text><rect x="340" y="478" width="95" height="42" fill="#111" opacity="0.78"/><text x="387" y="505" text-anchor="middle" font-family="Arial" font-size="14" fill="#fff">17/20</text><rect x="445" y="478" width="95" height="42" fill="#111" opacity="0.82"/><text x="492" y="505" text-anchor="middle" font-family="Arial" font-size="14" fill="#fff">18/20</text><rect x="550" y="478" width="95" height="42" fill="#111" opacity="0.80"/><text x="597" y="505" text-anchor="middle" font-family="Arial" font-size="14" fill="#fff">13/15</text><rect x="655" y="478" width="95" height="42" fill="#111" opacity="0.74"/><text x="702" y="505" text-anchor="middle" font-family="Arial" font-size="14" fill="#fff">12/15</text><rect x="760" y="478" width="95" height="42" fill="#111" opacity="0.74"/><text x="807" y="505" text-anchor="middle" font-family="Arial" font-size="14" fill="#fff">8/10</text><rect x="865" y="478" width="95" height="42" fill="#111" opacity="0.43"/><text x="912" y="505" text-anchor="middle" font-family="Arial" font-size="14" fill="#111">4/10</text><rect x="970" y="478" width="95" height="42" fill="#111" opacity="0.90"/><text x="1017" y="505" text-anchor="middle" font-family="Arial" font-size="14" fill="#fff">10/10</text><text x="40" y="566" font-family="Arial" font-size="16">8. Академия качества</text><rect x="340" y="536" width="95" height="42" fill="#111" opacity="0.82"/><text x="387" y="563" text-anchor="middle" font-family="Arial" font-size="14" fill="#fff">18/20</text><rect x="445" y="536" width="95" height="42" fill="#111" opacity="0.71"/><text x="492" y="563" text-anchor="middle" font-family="Arial" font-size="14" fill="#fff">15/20</text><rect x="550" y="536" width="95" height="42" fill="#111" opacity="0.90"/><text x="597" y="563" text-anchor="middle" font-family="Arial" font-size="14" fill="#fff">15/15</text><rect x="655" y="536" width="95" height="42" fill="#111" opacity="0.64"/><text x="702" y="563" text-anchor="middle" font-family="Arial" font-size="14" fill="#fff">10/15</text><rect x="760" y="536" width="95" height="42" fill="#111" opacity="0.82"/><text x="807" y="563" text-anchor="middle" font-family="Arial" font-size="14" fill="#fff">9/10</text><rect x="865" y="536" width="95" height="42" fill="#111" opacity="0.67"/><text x="912" y="563" text-anchor="middle" font-family="Arial" font-size="14" fill="#fff">7/10</text><rect x="970" y="536" width="95" height="42" fill="#111" opacity="0.67"/><text x="1017" y="563" text-anchor="middle" font-family="Arial" font-size="14" fill="#fff">7/10</text><text x="40" y="624" font-family="Arial" font-size="16">9. Инфосистемы Джет</text><rect x="340" y="594" width="95" height="42" fill="#111" opacity="0.55"/><text x="387" y="621" text-anchor="middle" font-family="Arial" font-size="14" fill="#111">11/20</text><rect x="445" y="594" width="95" height="42" fill="#111" opacity="0.86"/><text x="492" y="621" text-anchor="middle" font-family="Arial" font-size="14" fill="#fff">19/20</text><rect x="550" y="594" width="95" height="42" fill="#111" opacity="0.90"/><text x="597" y="621" text-anchor="middle" font-family="Arial" font-size="14" fill="#fff">15/15</text><rect x="655" y="594" width="95" height="42" fill="#111" opacity="0.80"/><text x="702" y="621" text-anchor="middle" font-family="Arial" font-size="14" fill="#fff">13/15</text><rect x="760" y="594" width="95" height="42" fill="#111" opacity="0.74"/><text x="807" y="621" text-anchor="middle" font-family="Arial" font-size="14" fill="#fff">8/10</text><rect x="865" y="594" width="95" height="42" fill="#111" opacity="0.35"/><text x="912" y="621" text-anchor="middle" font-family="Arial" font-size="14" fill="#111">3/10</text><rect x="970" y="594" width="95" height="42" fill="#111" opacity="0.67"/><text x="1017" y="621" text-anchor="middle" font-family="Arial" font-size="14" fill="#fff">7/10</text><text x="40" y="682" font-family="Arial" font-size="16">10. a1qa</text><rect x="340" y="652" width="95" height="42" fill="#111" opacity="0.90"/><text x="387" y="679" text-anchor="middle" font-family="Arial" font-size="14" fill="#fff">20/20</text><rect x="445" y="652" width="95" height="42" fill="#111" opacity="0.59"/><text x="492" y="679" text-anchor="middle" font-family="Arial" font-size="14" fill="#fff">12/20</text><rect x="550" y="652" width="95" height="42" fill="#111" opacity="0.80"/><text x="597" y="679" text-anchor="middle" font-family="Arial" font-size="14" fill="#fff">13/15</text><rect x="655" y="652" width="95" height="42" fill="#111" opacity="0.43"/><text x="702" y="679" text-anchor="middle" font-family="Arial" font-size="14" fill="#111">6/15</text><rect x="760" y="652" width="95" height="42" fill="#111" opacity="0.90"/><text x="807" y="679" text-anchor="middle" font-family="Arial" font-size="14" fill="#fff">10/10</text><rect x="865" y="652" width="95" height="42" fill="#111" opacity="0.43"/><text x="912" y="679" text-anchor="middle" font-family="Arial" font-size="14" fill="#111">4/10</text><rect x="970" y="652" width="95" height="42" fill="#111" opacity="0.90"/><text x="1017" y="679" text-anchor="middle" font-family="Arial" font-size="14" fill="#fff">10/10</text><text x="40" y="750" font-family="Arial" font-size="14">C1 сайты/пики · C2 диагностика · C3 методика · C4 исправление/ретест · C5 независимость · C6 прозрачность · C7 доказательства</text></svg>